<svg width="130" height="44" viewBox="0 0 130 44" fill="none" xmlns="http://www.w3.org/2000/svg">
<path d="M62.5701 27.2301C60.5594 27.2301 58.9617 26.6689 57.777 25.5466C56.5922 24.4087 56 22.772 56 20.6365V16.802C56 14.6665 56.5922 13.0376 57.777 11.9153C58.9617 10.7774 60.5594 10.2085 62.5701 10.2085C64.5809 10.2085 66.1786 10.7774 67.3633 11.9153C68.5635 13.0376 69.1637 14.6665 69.1637 16.802V20.6365C69.1637 22.772 68.5635 24.4087 67.3633 25.5466C66.1786 26.6689 64.5809 27.2301 62.5701 27.2301ZM62.5701 24.9621C63.8638 24.9621 64.8615 24.588 65.5629 23.8398C66.2644 23.0759 66.6151 22.0394 66.6151 20.7301V16.7085C66.6151 15.3991 66.2644 14.3704 65.5629 13.6222C64.8615 12.8584 63.8638 12.4765 62.5701 12.4765C61.3076 12.4765 60.3178 12.8584 59.6007 13.6222C58.8836 14.3704 58.5252 15.3991 58.5252 16.7085V20.7301C58.5252 22.0394 58.8836 23.0759 59.6007 23.8398C60.3178 24.588 61.3076 24.9621 62.5701 24.9621ZM77.1098 27.2301C76.0032 27.2301 74.9978 26.9963 74.0936 26.5286C73.2051 26.061 72.496 25.383 71.9659 24.4945C71.4515 23.606 71.1943 22.5382 71.1943 21.2912V20.9873C71.1943 19.7403 71.4515 18.6802 71.9659 17.8074C72.496 16.9189 73.2051 16.2409 74.0936 15.7732C74.9978 15.29 76.0032 15.0484 77.1098 15.0484C78.2164 15.0484 79.1596 15.2511 79.9389 15.6563C80.7182 16.0616 81.3418 16.5993 81.8094 17.2696C82.2927 17.94 82.6044 18.6802 82.7447 19.4909L80.4066 19.9819C80.3287 19.4675 80.165 18.9999 79.9156 18.579C79.6661 18.1581 79.3154 17.8231 78.8634 17.5736C78.4114 17.3241 77.8423 17.1995 77.1566 17.1995C76.4862 17.1995 75.8783 17.3555 75.3328 17.6671C74.8028 17.9634 74.3819 18.3997 74.0702 18.9765C73.7586 19.5376 73.6026 20.2234 73.6026 21.034V21.2445C73.6026 22.0551 73.7586 22.7486 74.0702 23.3254C74.3819 23.9022 74.8028 24.3385 75.3328 24.6348C75.8783 24.931 76.4862 25.079 77.1566 25.079C78.1697 25.079 78.9413 24.8218 79.4713 24.3074C80.0014 23.7774 80.3364 23.1073 80.4767 22.2966L82.8148 22.8344C82.6278 23.6294 82.2927 24.3619 81.8094 25.0322C81.3418 25.7026 80.7182 26.2403 79.9389 26.6455C79.1596 27.0353 78.2164 27.2301 77.1098 27.2301ZM85.1249 26.9027V10.5358H87.5332V19.865H87.9073L92.4433 15.3758H95.6465L89.8246 20.9639L95.8335 26.9027H92.6537L87.9073 22.1096H87.5332V26.9027H85.1249ZM102.274 27.2301C101.121 27.2301 100.092 26.9963 99.1878 26.5286C98.2993 26.0453 97.5979 25.3596 97.0835 24.4711C96.5691 23.5826 96.3119 22.5304 96.3119 21.3146V20.9639C96.3119 19.7481 96.5691 18.7036 97.0835 17.8308C97.5979 16.9423 98.2993 16.2565 99.1878 15.7732C100.092 15.29 101.121 15.0484 102.274 15.0484C103.428 15.0484 104.456 15.29 105.36 15.7732C106.265 16.2565 106.974 16.9423 107.488 17.8308C108.003 18.7036 108.26 19.7481 108.26 20.9639V21.3146C108.26 22.5304 108.003 23.5826 107.488 24.4711C106.974 25.3596 106.265 26.0453 105.36 26.5286C104.456 26.9963 103.428 27.2301 102.274 27.2301ZM102.274 25.079C103.334 25.079 104.191 24.7439 104.846 24.0736C105.516 23.3878 105.851 22.4446 105.851 21.2445V21.034C105.851 19.8339 105.524 18.8986 104.869 18.2283C104.215 17.5425 103.35 17.1995 102.274 17.1995C101.23 17.1995 100.373 17.5425 99.7022 18.2283C99.0475 18.8986 98.7202 19.8339 98.7202 21.034V21.2445C98.7202 22.4446 99.0475 23.3878 99.7022 24.0736C100.373 24.7439 101.23 25.079 102.274 25.079ZM110.79 26.9027V15.3758H113.152V16.7319H113.526C113.744 16.3266 114.095 15.9681 114.578 15.6563C115.061 15.3446 115.716 15.1887 116.542 15.1887C117.4 15.1887 118.085 15.368 118.6 15.7265C119.13 16.0694 119.527 16.5137 119.792 17.0592H120.166C120.431 16.5292 120.813 16.085 121.312 15.7265C121.826 15.368 122.551 15.1887 123.486 15.1887C124.235 15.1887 124.897 15.3446 125.474 15.6563C126.051 15.9525 126.51 16.4045 126.853 17.0125C127.196 17.6047 127.368 18.3452 127.368 19.2337V26.9027H124.959V19.4207C124.959 18.7193 124.765 18.1815 124.375 17.8074C124.001 17.4176 123.463 17.2229 122.762 17.2229C122.013 17.2229 121.413 17.4644 120.961 17.9477C120.509 18.431 120.283 19.1245 120.283 20.0286V26.9027H117.875V19.4207C117.875 18.7193 117.68 18.1815 117.29 17.8074C116.916 17.4176 116.378 17.2229 115.677 17.2229C114.929 17.2229 114.329 17.4644 113.877 17.9477C113.425 18.431 113.199 19.1245 113.199 20.0286V26.9027H110.79Z" fill="white"/>
<path d="M57.4702 35.2336C57.1709 35.2336 56.9109 35.1775 56.6902 35.0653C56.4695 34.953 56.2993 34.7978 56.1796 34.5995C56.0599 34.4012 56 34.173 56 33.9149V32.5738C56 32.2558 56.0636 31.992 56.1908 31.7825C56.3217 31.5693 56.4994 31.4103 56.7239 31.3056C56.9521 31.2008 57.2121 31.1484 57.5039 31.1484C57.7957 31.1484 58.0482 31.1971 58.2614 31.2943C58.4784 31.3916 58.6449 31.5319 58.7609 31.7152C58.8806 31.8985 58.9404 32.1174 58.9404 32.3717H58.2109C58.2109 32.2146 58.1567 32.0781 58.0482 31.9621C57.9397 31.8461 57.7583 31.7881 57.5039 31.7881C57.2532 31.7881 57.0587 31.8536 56.9203 31.9846C56.7856 32.1155 56.7183 32.2969 56.7183 32.5289V32.9329H56.8193C56.8829 32.8581 56.9801 32.787 57.1111 32.7197C57.242 32.6523 57.4328 32.6187 57.6835 32.6187C57.9117 32.6187 58.1212 32.6673 58.3119 32.7646C58.5065 32.8618 58.6636 33.004 58.7833 33.191C58.903 33.3743 58.9629 33.5969 58.9629 33.8588V33.9261C58.9629 34.1843 58.9011 34.4125 58.7777 34.6107C58.6542 34.8053 58.4803 34.9587 58.2558 35.0709C58.0314 35.1794 57.7695 35.2336 57.4702 35.2336ZM57.4814 34.5939C57.7171 34.5939 57.9023 34.5322 58.037 34.4087C58.1754 34.2853 58.2446 34.1207 58.2446 33.9149V33.87C58.2446 33.7316 58.2128 33.6119 58.1492 33.5109C58.0894 33.4099 58.0014 33.3313 57.8855 33.2752C57.7732 33.2191 57.6386 33.191 57.4814 33.191C57.3281 33.191 57.1934 33.2191 57.0774 33.2752C56.9614 33.3313 56.8717 33.4099 56.8081 33.5109C56.7482 33.6119 56.7183 33.7316 56.7183 33.87V33.9149C56.7183 34.1207 56.7856 34.2853 56.9203 34.4087C57.0587 34.5322 57.2458 34.5939 57.4814 34.5939ZM60.8717 35.2336C60.5724 35.2336 60.3068 35.1887 60.0749 35.0989C59.8467 35.0092 59.6671 34.8801 59.5362 34.7118C59.409 34.5397 59.3454 34.3376 59.3454 34.1057V34.0384C59.3454 33.8588 59.3772 33.711 59.4408 33.5951C59.5044 33.4753 59.583 33.3818 59.6765 33.3145C59.7737 33.2471 59.8654 33.2004 59.9514 33.1742V33.0732C59.8654 33.0433 59.7794 32.9946 59.6933 32.9273C59.6073 32.86 59.5362 32.7702 59.4801 32.6579C59.4277 32.5457 59.4015 32.411 59.4015 32.2539V32.1866C59.4015 31.9808 59.4614 31.8012 59.5811 31.6479C59.7045 31.4907 59.8766 31.3692 60.0973 31.2831C60.3181 31.1933 60.5762 31.1484 60.8717 31.1484C61.1673 31.1484 61.4254 31.1933 61.6461 31.2831C61.8668 31.3692 62.0371 31.4907 62.1568 31.6479C62.2802 31.8012 62.3419 31.9808 62.3419 32.1866V32.2539C62.3419 32.411 62.3139 32.5457 62.2578 32.6579C62.2054 32.7702 62.1362 32.86 62.0501 32.9273C61.9678 32.9946 61.8818 33.0433 61.792 33.0732V33.1742C61.8818 33.2004 61.9735 33.2471 62.067 33.3145C62.1605 33.3818 62.2391 33.4753 62.3027 33.5951C62.3663 33.711 62.3981 33.8588 62.3981 34.0384V34.1057C62.3981 34.3376 62.3326 34.5397 62.2017 34.7118C62.0745 34.8801 61.8949 35.0092 61.663 35.0989C61.4348 35.1887 61.171 35.2336 60.8717 35.2336ZM60.8717 34.5939C61.1299 34.5939 61.3281 34.5453 61.4665 34.448C61.6087 34.347 61.6798 34.2142 61.6798 34.0496V34.0047C61.6798 33.8401 61.6106 33.7092 61.4722 33.6119C61.3375 33.5109 61.1373 33.4604 60.8717 33.4604C60.6099 33.4604 60.4097 33.5109 60.2713 33.6119C60.1329 33.7092 60.0637 33.8401 60.0637 34.0047V34.0496C60.0637 34.2142 60.1329 34.347 60.2713 34.448C60.4135 34.5453 60.6136 34.5939 60.8717 34.5939ZM60.8717 32.8207C61.1112 32.8207 61.2963 32.7776 61.4273 32.6916C61.5582 32.6056 61.6237 32.484 61.6237 32.3269V32.282C61.6237 32.1248 61.5563 32.0033 61.4217 31.9172C61.287 31.8312 61.1037 31.7881 60.8717 31.7881C60.6398 31.7881 60.4565 31.8312 60.3218 31.9172C60.1871 32.0033 60.1198 32.1248 60.1198 32.282V32.3269C60.1198 32.484 60.1853 32.6056 60.3162 32.6916C60.4471 32.7776 60.6323 32.8207 60.8717 32.8207ZM68.5782 35.2336C68.2789 35.2336 68.0189 35.1775 67.7982 35.0653C67.5775 34.953 67.4073 34.7978 67.2876 34.5995C67.1678 34.4012 67.108 34.173 67.108 33.9149V32.5738C67.108 32.2558 67.1716 31.992 67.2988 31.7825C67.4297 31.5693 67.6074 31.4103 67.8319 31.3056C68.0601 31.2008 68.3201 31.1484 68.6119 31.1484C68.9037 31.1484 69.1562 31.1971 69.3694 31.2943C69.5864 31.3916 69.7529 31.5319 69.8688 31.7152C69.9886 31.8985 70.0484 32.1174 70.0484 32.3717H69.3189C69.3189 32.2146 69.2647 32.0781 69.1562 31.9621C69.0477 31.8461 68.8663 31.7881 68.6119 31.7881C68.3612 31.7881 68.1667 31.8536 68.0283 31.9846C67.8936 32.1155 67.8263 32.2969 67.8263 32.5289V32.9329H67.9273C67.9909 32.8581 68.0881 32.787 68.2191 32.7197C68.35 32.6523 68.5408 32.6187 68.7914 32.6187C69.0196 32.6187 69.2291 32.6673 69.4199 32.7646C69.6145 32.8618 69.7716 33.004 69.8913 33.191C70.011 33.3743 70.0709 33.5969 70.0709 33.8588V33.9261C70.0709 34.1843 70.0091 34.4125 69.8857 34.6107C69.7622 34.8053 69.5883 34.9587 69.3638 35.0709C69.1394 35.1794 68.8775 35.2336 68.5782 35.2336ZM68.5894 34.5939C68.8251 34.5939 69.0103 34.5322 69.145 34.4087C69.2834 34.2853 69.3526 34.1207 69.3526 33.9149V33.87C69.3526 33.7316 69.3208 33.6119 69.2572 33.5109C69.1973 33.4099 69.1094 33.3313 68.9935 33.2752C68.8812 33.2191 68.7466 33.191 68.5894 33.191C68.436 33.191 68.3014 33.2191 68.1854 33.2752C68.0694 33.3313 67.9796 33.4099 67.916 33.5109C67.8562 33.6119 67.8263 33.7316 67.8263 33.87V33.9149C67.8263 34.1207 67.8936 34.2853 68.0283 34.4087C68.1667 34.5322 68.3537 34.5939 68.5894 34.5939ZM71.722 35.1551V31.7545H71.621L71.0936 33.0002H70.3416L71.1441 31.227H72.4403V35.1551H71.722ZM78.8367 35.2336C78.5375 35.2336 78.2775 35.1775 78.0567 35.0653C77.836 34.953 77.6658 34.7978 77.5461 34.5995C77.4264 34.4012 77.3665 34.173 77.3665 33.9149V32.5738C77.3665 32.2558 77.4301 31.992 77.5573 31.7825C77.6883 31.5693 77.866 31.4103 78.0904 31.3056C78.3186 31.2008 78.5786 31.1484 78.8704 31.1484C79.1622 31.1484 79.4147 31.1971 79.628 31.2943C79.8449 31.3916 80.0114 31.5319 80.1274 31.7152C80.2471 31.8985 80.307 32.1174 80.307 32.3717H79.5775C79.5775 32.2146 79.5232 32.0781 79.4147 31.9621C79.3062 31.8461 79.1248 31.7881 78.8704 31.7881C78.6198 31.7881 78.4252 31.8536 78.2868 31.9846C78.1521 32.1155 78.0848 32.2969 78.0848 32.5289V32.9329H78.1858C78.2494 32.8581 78.3467 32.787 78.4776 32.7197C78.6085 32.6523 78.7993 32.6187 79.05 32.6187C79.2782 32.6187 79.4877 32.6673 79.6785 32.7646C79.873 32.8618 80.0301 33.004 80.1498 33.191C80.2696 33.3743 80.3294 33.5969 80.3294 33.8588V33.9261C80.3294 34.1843 80.2677 34.4125 80.1442 34.6107C80.0208 34.8053 79.8468 34.9587 79.6224 35.0709C79.3979 35.1794 79.136 35.2336 78.8367 35.2336ZM78.848 34.5939C79.0837 34.5939 79.2688 34.5322 79.4035 34.4087C79.5419 34.2853 79.6111 34.1207 79.6111 33.9149V33.87C79.6111 33.7316 79.5793 33.6119 79.5157 33.5109C79.4559 33.4099 79.368 33.3313 79.252 33.2752C79.1398 33.2191 79.0051 33.191 78.848 33.191C78.6946 33.191 78.5599 33.2191 78.4439 33.2752C78.328 33.3313 78.2382 33.4099 78.1746 33.5109C78.1147 33.6119 78.0848 33.7316 78.0848 33.87V33.9149C78.0848 34.1207 78.1521 34.2853 78.2868 34.4087C78.4252 34.5322 78.6123 34.5939 78.848 34.5939ZM82.2607 35.2336C81.9652 35.2336 81.7033 35.1812 81.4751 35.0765C81.2469 34.9717 81.0673 34.8221 80.9364 34.6276C80.8092 34.4293 80.7456 34.1955 80.7456 33.9261V33.8251H81.4639V33.9037C81.4639 34.1132 81.5368 34.2815 81.6827 34.4087C81.8286 34.5322 82.0213 34.5939 82.2607 34.5939C82.5039 34.5939 82.6909 34.5359 82.8219 34.42C82.9565 34.304 83.0239 34.1581 83.0239 33.9823V33.9261C83.0239 33.8064 82.9939 33.7092 82.9341 33.6343C82.8742 33.5595 82.7938 33.5053 82.6928 33.4716C82.5918 33.4342 82.4777 33.4155 82.3505 33.4155H81.5649V32.6299L82.8331 31.9565V31.8667H80.8466V31.227H83.6299V32.181L82.4459 32.8094V32.8992H82.6535C82.8293 32.8992 82.9996 32.9348 83.1642 33.0059C83.3325 33.0769 83.4709 33.1873 83.5794 33.3369C83.6879 33.4828 83.7421 33.6736 83.7421 33.9093V33.9766C83.7421 34.231 83.6804 34.4536 83.557 34.6444C83.4335 34.8315 83.2596 34.9774 83.0351 35.0821C82.8144 35.1831 82.5562 35.2336 82.2607 35.2336ZM89.9941 35.2336C89.6948 35.2336 89.4348 35.1775 89.2141 35.0653C88.9933 34.953 88.8231 34.7978 88.7034 34.5995C88.5837 34.4012 88.5239 34.173 88.5239 33.9149V32.5738C88.5239 32.2558 88.5875 31.992 88.7146 31.7825C88.8456 31.5693 89.0233 31.4103 89.2477 31.3056C89.4759 31.2008 89.7359 31.1484 90.0277 31.1484C90.3195 31.1484 90.5721 31.1971 90.7853 31.2943C91.0023 31.3916 91.1687 31.5319 91.2847 31.7152C91.4044 31.8985 91.4643 32.1174 91.4643 32.3717H90.7348C90.7348 32.2146 90.6805 32.0781 90.5721 31.9621C90.4636 31.8461 90.2821 31.7881 90.0277 31.7881C89.7771 31.7881 89.5826 31.8536 89.4441 31.9846C89.3095 32.1155 89.2421 32.2969 89.2421 32.5289V32.9329H89.3431C89.4067 32.8581 89.504 32.787 89.6349 32.7197C89.7659 32.6523 89.9567 32.6187 90.2073 32.6187C90.4355 32.6187 90.645 32.6673 90.8358 32.7646C91.0303 32.8618 91.1875 33.004 91.3072 33.191C91.4269 33.3743 91.4867 33.5969 91.4867 33.8588V33.9261C91.4867 34.1843 91.425 34.4125 91.3016 34.6107C91.1781 34.8053 91.0041 34.9587 90.7797 35.0709C90.5552 35.1794 90.2934 35.2336 89.9941 35.2336ZM90.0053 34.5939C90.241 34.5939 90.4262 34.5322 90.5608 34.4087C90.6992 34.2853 90.7685 34.1207 90.7685 33.9149V33.87C90.7685 33.7316 90.7367 33.6119 90.6731 33.5109C90.6132 33.4099 90.5253 33.3313 90.4093 33.2752C90.2971 33.2191 90.1624 33.191 90.0053 33.191C89.8519 33.191 89.7172 33.2191 89.6013 33.2752C89.4853 33.3313 89.3955 33.4099 89.3319 33.5109C89.2721 33.6119 89.2421 33.7316 89.2421 33.87V33.9149C89.2421 34.1207 89.3095 34.2853 89.4441 34.4087C89.5826 34.5322 89.7696 34.5939 90.0053 34.5939ZM93.7772 35.2336C93.5265 35.2336 93.3339 35.1906 93.1992 35.1046C93.0645 35.0185 92.9654 34.9231 92.9018 34.8184H92.8008V35.1551H92.1049V31.227H92.812V32.6916H92.913C92.9541 32.6243 93.0084 32.5607 93.0757 32.5008C93.1468 32.441 93.2385 32.3923 93.3507 32.3549C93.4667 32.3138 93.6088 32.2932 93.7772 32.2932C94.0016 32.2932 94.2092 32.3493 94.4 32.4615C94.5908 32.57 94.7442 32.7309 94.8602 32.9441C94.9762 33.1574 95.0341 33.4155 95.0341 33.7185V33.8083C95.0341 34.1113 94.9762 34.3694 94.8602 34.5827C94.7442 34.7959 94.5908 34.9587 94.4 35.0709C94.2092 35.1794 94.0016 35.2336 93.7772 35.2336ZM93.5639 34.6164C93.7809 34.6164 93.9623 34.5471 94.1082 34.4087C94.2541 34.2666 94.3271 34.0608 94.3271 33.7915V33.7353C94.3271 33.466 94.2541 33.2621 94.1082 33.1237C93.9661 32.9815 93.7846 32.9105 93.5639 32.9105C93.3469 32.9105 93.1655 32.9815 93.0196 33.1237C92.8737 33.2621 92.8008 33.466 92.8008 33.7353V33.7915C92.8008 34.0608 92.8737 34.2666 93.0196 34.4087C93.1655 34.5471 93.3469 34.6164 93.5639 34.6164ZM101.316 35.2336C101.016 35.2336 100.756 35.1775 100.536 35.0653C100.315 34.953 100.145 34.7978 100.025 34.5995C99.9052 34.4012 99.8453 34.173 99.8453 33.9149V32.5738C99.8453 32.2558 99.9089 31.992 100.036 31.7825C100.167 31.5693 100.345 31.4103 100.569 31.3056C100.797 31.2008 101.057 31.1484 101.349 31.1484C101.641 31.1484 101.894 31.1971 102.107 31.2943C102.324 31.3916 102.49 31.5319 102.606 31.7152C102.726 31.8985 102.786 32.1174 102.786 32.3717H102.056C102.056 32.2146 102.002 32.0781 101.894 31.9621C101.785 31.8461 101.604 31.7881 101.349 31.7881C101.099 31.7881 100.904 31.8536 100.766 31.9846C100.631 32.1155 100.564 32.2969 100.564 32.5289V32.9329H100.665C100.728 32.8581 100.825 32.787 100.956 32.7197C101.087 32.6523 101.278 32.6187 101.529 32.6187C101.757 32.6187 101.966 32.6673 102.157 32.7646C102.352 32.8618 102.509 33.004 102.629 33.191C102.748 33.3743 102.808 33.5969 102.808 33.8588V33.9261C102.808 34.1843 102.746 34.4125 102.623 34.6107C102.5 34.8053 102.326 34.9587 102.101 35.0709C101.877 35.1794 101.615 35.2336 101.316 35.2336ZM101.327 34.5939C101.562 34.5939 101.748 34.5322 101.882 34.4087C102.021 34.2853 102.09 34.1207 102.09 33.9149V33.87C102.09 33.7316 102.058 33.6119 101.995 33.5109C101.935 33.4099 101.847 33.3313 101.731 33.2752C101.619 33.2191 101.484 33.191 101.327 33.191C101.173 33.191 101.039 33.2191 100.923 33.2752C100.807 33.3313 100.717 33.4099 100.653 33.5109C100.594 33.6119 100.564 33.7316 100.564 33.87V33.9149C100.564 34.1207 100.631 34.2853 100.766 34.4087C100.904 34.5322 101.091 34.5939 101.327 34.5939ZM104.734 35.2336C104.427 35.2336 104.161 35.1794 103.937 35.0709C103.716 34.9624 103.546 34.809 103.426 34.6107C103.307 34.4125 103.247 34.1824 103.247 33.9205V33.8644H103.976V33.9149C103.976 34.102 104.038 34.2628 104.162 34.3975C104.289 34.5284 104.476 34.5939 104.723 34.5939C104.97 34.5939 105.158 34.5284 105.289 34.3975C105.424 34.2628 105.491 34.0889 105.491 33.8756V33.8195C105.491 33.61 105.424 33.4435 105.289 33.3201C105.158 33.1966 104.994 33.1349 104.796 33.1349C104.687 33.1349 104.597 33.1499 104.526 33.1798C104.455 33.2097 104.397 33.2471 104.352 33.292C104.307 33.3369 104.27 33.3818 104.24 33.4267H103.37V31.227H106.053V31.8779H104.089V32.8375H104.19C104.227 32.7889 104.277 32.7421 104.341 32.6972C104.405 32.6523 104.487 32.6149 104.588 32.585C104.689 32.5551 104.809 32.5401 104.947 32.5401C105.179 32.5401 105.39 32.5887 105.581 32.686C105.772 32.7833 105.924 32.9273 106.036 33.1181C106.152 33.3051 106.21 33.5371 106.21 33.8139V33.8812C106.21 34.1581 106.15 34.3975 106.03 34.5995C105.914 34.8015 105.746 34.9587 105.525 35.0709C105.304 35.1794 105.041 35.2336 104.734 35.2336ZM111.408 35.1551V35.0092C111.408 34.8633 111.419 34.7398 111.441 34.6388C111.464 34.5341 111.513 34.4162 111.587 34.2853L112.906 31.9565V31.8667H110.819V31.227H113.647V32.0799L112.255 34.5659C112.207 34.6519 112.173 34.7286 112.154 34.7959C112.135 34.8633 112.126 34.9456 112.126 35.0428V35.1551H111.408ZM113.994 35.1551V34.6837C113.994 34.4106 114.039 34.1843 114.128 34.0047C114.218 33.8214 114.347 33.6717 114.516 33.5558C114.688 33.4361 114.897 33.3388 115.144 33.264L115.52 33.1461C115.659 33.1012 115.775 33.047 115.868 32.9834C115.962 32.9161 116.033 32.8356 116.081 32.7421C116.134 32.6486 116.16 32.542 116.16 32.4223V32.3998C116.16 32.2128 116.096 32.065 115.969 31.9565C115.842 31.8443 115.668 31.7881 115.447 31.7881C115.23 31.7881 115.054 31.848 114.92 31.9677C114.789 32.0837 114.723 32.252 114.723 32.4728V32.5738H114.005V32.484C114.005 32.1997 114.069 31.9584 114.196 31.7601C114.323 31.5618 114.495 31.4103 114.712 31.3056C114.933 31.2008 115.178 31.1484 115.447 31.1484C115.717 31.1484 115.96 31.2008 116.177 31.3056C116.394 31.4066 116.564 31.5506 116.687 31.7376C116.815 31.921 116.878 32.1379 116.878 32.3886V32.4447C116.878 32.6953 116.826 32.9086 116.721 33.0844C116.62 33.2565 116.482 33.3987 116.306 33.5109C116.13 33.6194 115.93 33.7092 115.705 33.7802L115.346 33.8925C115.185 33.9411 115.06 33.9953 114.97 34.0552C114.88 34.1113 114.817 34.1749 114.779 34.246C114.746 34.3133 114.729 34.3956 114.729 34.4929V34.5153H116.844V35.1551H113.994ZM122.099 35.1551V35.0092C122.099 34.8633 122.111 34.7398 122.133 34.6388C122.156 34.5341 122.204 34.4162 122.279 34.2853L123.598 31.9565V31.8667H121.51V31.227H124.338V32.0799L122.947 34.5659C122.898 34.6519 122.864 34.7286 122.846 34.7959C122.827 34.8633 122.818 34.9456 122.818 35.0428V35.1551H122.099ZM126.177 35.2336C125.882 35.2336 125.62 35.1812 125.392 35.0765C125.164 34.9717 124.984 34.8221 124.853 34.6276C124.726 34.4293 124.662 34.1955 124.662 33.9261V33.8251H125.38V33.9037C125.38 34.1132 125.453 34.2815 125.599 34.4087C125.745 34.5322 125.938 34.5939 126.177 34.5939C126.42 34.5939 126.608 34.5359 126.738 34.42C126.873 34.304 126.94 34.1581 126.94 33.9823V33.9261C126.94 33.8064 126.911 33.7092 126.851 33.6343C126.791 33.5595 126.71 33.5053 126.609 33.4716C126.508 33.4342 126.394 33.4155 126.267 33.4155H125.481V32.6299L126.75 31.9565V31.8667H124.763V31.227H127.547V32.181L126.363 32.8094V32.8992H126.57C126.746 32.8992 126.916 32.9348 127.081 33.0059C127.249 33.0769 127.388 33.1873 127.496 33.3369C127.605 33.4828 127.659 33.6736 127.659 33.9093V33.9766C127.659 34.231 127.597 34.4536 127.474 34.6444C127.35 34.8315 127.176 34.9774 126.952 35.0821C126.731 35.1831 126.473 35.2336 126.177 35.2336Z" fill="white"/>
<path fill-rule="evenodd" clip-rule="evenodd" d="M21.7446 0.0141602C9.73363 0.0141602 0 9.74779 0 21.7588C0 33.7697 9.73363 43.5034 21.7446 43.5034C33.7556 43.5034 43.4892 33.7697 43.4892 21.7588C43.4892 9.74779 33.7556 0.0141602 21.7446 0.0141602ZM31.6302 18.0785H36.1802L36.2433 18.3474C36.5052 19.4651 36.6362 20.6107 36.6362 21.7588C36.6362 29.982 29.9678 36.6503 21.7446 36.6503C17.1338 36.6503 12.5207 36.6503 7.90989 36.6503H7.7696L7.66906 36.5544C6.49766 35.4392 5.45953 34.1883 4.58273 32.8321L4.23435 32.2944H21.7446C27.5619 32.2944 32.2779 27.5784 32.2779 21.7611C32.2779 20.6669 32.1095 19.5796 31.7752 18.5368L31.6302 18.0785ZM7.24586 25.1701C6.98399 24.0525 6.85306 22.9068 6.85306 21.7588C6.85306 13.5356 13.5214 6.86722 21.7446 6.86722H35.7173L35.8178 6.96308C36.9892 8.07837 38.0273 9.32927 38.9041 10.6854L39.2525 11.2232H21.7446C15.9273 11.2232 11.2113 15.9392 11.2113 21.7564C11.2113 22.8507 11.3797 23.9379 11.714 24.9807L11.8613 25.4366H7.31133L7.24586 25.1701ZM6.31763 26.7624C11.4592 26.7624 16.6031 26.7624 21.7446 26.7624C24.5083 26.7624 26.7482 24.5224 26.7482 21.7588C26.7482 20.6224 26.3694 19.5329 25.661 18.6444L25.2097 18.0785H30.1946L30.2835 18.296C30.73 19.3973 30.9568 20.571 30.9568 21.7588C30.9568 26.8442 26.8324 30.971 21.7446 30.971H3.51421L3.41835 30.7769C2.03417 27.9665 1.32337 24.8919 1.32337 21.7611C1.32337 10.482 10.4678 1.33988 21.7446 1.33988C25.8761 1.33988 29.8766 2.57441 33.2833 4.9102L34.2115 5.54851H21.7446C12.7919 5.54851 5.52968 12.8084 5.52968 21.7634C5.52968 23.4586 5.79388 25.1467 6.31763 26.7624ZM37.1716 16.7552C32.03 16.7552 26.8862 16.7552 21.7446 16.7552C18.9809 16.7552 16.741 18.9951 16.741 21.7588C16.741 22.8928 17.1198 23.9847 17.8282 24.8732L18.2795 25.4413H13.2946L13.2058 25.2239C12.7592 24.1226 12.5324 22.9489 12.5324 21.7611C12.5324 16.6757 16.6568 12.5489 21.7446 12.5489H39.975L40.0709 12.7429C41.455 15.5534 42.1658 18.628 42.1658 21.7588C42.1658 33.0356 33.0214 42.18 21.7446 42.18C17.6131 42.18 13.6126 40.9478 10.2059 38.6097L9.2777 37.9714H21.7446C30.6973 37.9714 37.9595 30.7115 37.9595 21.7588C37.9595 20.0589 37.6953 18.3732 37.1716 16.7552ZM21.7446 18.0785C23.7764 18.0785 25.4248 19.7269 25.4248 21.7588C25.4248 23.7906 23.7764 25.439 21.7446 25.439C19.7104 25.439 18.0644 23.7906 18.0644 21.7588C18.0644 19.7269 19.7104 18.0785 21.7446 18.0785Z" fill="white"/>
<path d="M49.4883 0V43.518" stroke="white"/>
</svg>
